<svg width="19" height="17" viewBox="0 0 19 17" fill="none" xmlns="http://www.w3.org/2000/svg">
<path d="M12.1861 8.70312L17.8552 3.76812C18.4815 3.22286 18.4815 2.33885 17.8552 1.79443L17.0994 1.13653C16.4728 0.591098 15.4573 0.591098 14.8319 1.13653L9.16306 6.07136L3.49399 1.13551C2.86762 0.590246 1.85211 0.590246 1.22671 1.13551L0.46978 1.79341C-0.156593 2.33885 -0.156593 3.22286 0.46978 3.76727L6.13983 8.70312L0.470955 13.6379C-0.155615 14.1834 -0.155615 15.0674 0.470955 15.6118L1.22671 16.2697C1.85309 16.815 2.8686 16.815 3.49399 16.2697L9.16306 11.3347L14.8319 16.2697C15.4585 16.815 16.474 16.815 17.0994 16.2697L17.8552 15.6118C18.4815 15.0664 18.4815 14.1824 17.8552 13.6379L12.1861 8.70312Z" fill="#362D5D" fill-opacity="0.6"/>
</svg>
