<svg width="15" height="15" viewBox="0 0 13 13" fill="none" xmlns="http://www.w3.org/2000/svg">
<path d="M4.44922 1.78516H4.32812C4.39473 1.78516 4.44922 1.73066 4.44922 1.66406V1.78516H9.05078V1.66406C9.05078 1.73066 9.10527 1.78516 9.17188 1.78516H9.05078V2.875H10.1406V1.66406C10.1406 1.12974 9.7062 0.695312 9.17188 0.695312H4.32812C3.7938 0.695312 3.35938 1.12974 3.35938 1.66406V2.875H4.44922V1.78516ZM12.0781 2.875H1.42188C1.15396 2.875 0.9375 3.09145 0.9375 3.35938V3.84375C0.9375 3.91035 0.991992 3.96484 1.05859 3.96484H1.97285L2.34673 11.8813C2.37095 12.3975 2.7978 12.8047 3.31396 12.8047H10.186C10.7037 12.8047 11.1291 12.399 11.1533 11.8813L11.5271 3.96484H12.4414C12.508 3.96484 12.5625 3.91035 12.5625 3.84375V3.35938C12.5625 3.09145 12.346 2.875 12.0781 2.875ZM10.0695 11.7148H3.43052L3.06421 3.96484H10.4358L10.0695 11.7148Z" fill="#0A0A0A"/>
</svg>
