<svg width="15" height="15" viewBox="0 0 30 30" fill="none" xmlns="http://www.w3.org/2000/svg">
<path d="M20.5925 6.75978L23.24 9.40603L20.5925 6.75978ZM22.295 4.42853L15.1363 11.5873C14.7664 11.9567 14.5141 12.4273 14.4113 12.9398L13.75 16.2498L17.06 15.5873C17.5725 15.4848 18.0425 15.2335 18.4125 14.8635L25.5713 7.70478C25.7864 7.48966 25.957 7.23428 26.0734 6.95321C26.1899 6.67214 26.2498 6.37089 26.2498 6.06666C26.2498 5.76243 26.1899 5.46118 26.0734 5.18011C25.957 4.89904 25.7864 4.64366 25.5713 4.42853C25.3561 4.21341 25.1007 4.04277 24.8197 3.92635C24.5386 3.80992 24.2374 3.75 23.9331 3.75C23.6289 3.75 23.3276 3.80992 23.0466 3.92635C22.7655 4.04277 22.5101 4.21341 22.295 4.42853V4.42853Z" stroke="white" stroke-width="1.5" stroke-linecap="round" stroke-linejoin="round"/>
<path d="M23.75 18.75V22.5C23.75 23.163 23.4866 23.7989 23.0178 24.2678C22.5489 24.7366 21.913 25 21.25 25H7.5C6.83696 25 6.20107 24.7366 5.73223 24.2678C5.26339 23.7989 5 23.163 5 22.5V8.75C5 8.08696 5.26339 7.45107 5.73223 6.98223C6.20107 6.51339 6.83696 6.25 7.5 6.25H11.25" stroke="white" stroke-width="1.5" stroke-linecap="round" stroke-linejoin="round"/>
</svg>
