<svg width="15" height="15" viewBox="0 0 21 21" fill="none" xmlns="http://www.w3.org/2000/svg">
<path d="M17.2528 13.6574H20.4397V18.7565C20.4397 19.2637 20.2382 19.7501 19.8797 20.1087C19.521 20.4672 19.0346 20.6688 18.5274 20.6688H1.95526C1.44811 20.6688 0.961686 20.4672 0.603039 20.1087C0.244536 19.7501 0.0429688 19.2637 0.0429688 18.7565V13.6574H3.22993V17.4817H17.2525L17.2528 13.6574ZM5.7968 6.95831H8.32944V14.9322H12.1538V6.95831H14.6864C14.8102 6.95697 14.923 6.88732 14.9796 6.77721C15.0362 6.66724 15.0272 6.53489 14.9563 6.43352L10.6156 0.463285C10.5285 0.343983 10.3894 0.273438 10.2417 0.273438C10.0939 0.273438 9.95491 0.343983 9.86777 0.463285L5.52705 6.43352C5.45621 6.53489 5.44717 6.66724 5.50379 6.77721C5.5604 6.88732 5.67318 6.95698 5.79693 6.95831H5.7968Z" fill="white"/>
</svg>
